PathFileType	4	(X/Y/Z)	/Users/itak/Documents/Research/Walk-IL/dataset/trc/00253_00009.trc
DataRate	CameraRate	NumFrames	NumMarkers	Units	OrigDataRate	OrigDataStartFrame	OrigNumFrames
100.000000	100.000000	4	54	mm	100.000000	355	474
Frame#	Time	RPSI			LPSI			L3			STRN			T10			C7			CLAV			RBAK			LBAK			LSHO			LUPA			LAEL			LAOL			LWTS			LWPS			LFRA			LIFD			LHPS			LHTS			RSHO			RUPA			RAEL			RAOL			RWTS			RWPS			RFRA			RIFD			RHPS			RBHD			LFHD			RFHD			LBHD			LHIP			RHIP			RASI			LASI			LKNE			LTHI			LANK			LTIP			LTOE			LMT1			LMT5			LHEE			RKNE			RTHI			RANK			RTIP			RTOE			RMT1			RMT5			RHEE			RHTS			*53			
		X1	Y1	Z1	X2	Y2	Z2	X3	Y3	Z3	X4	Y4	Z4	X5	Y5	Z5	X6	Y6	Z6	X7	Y7	Z7	X8	Y8	Z8	X9	Y9	Z9	X10	Y10	Z10	X11	Y11	Z11	X12	Y12	Z12	X13	Y13	Z13	X14	Y14	Z14	X15	Y15	Z15	X16	Y16	Z16	X17	Y17	Z17	X18	Y18	Z18	X19	Y19	Z19	X20	Y20	Z20	X21	Y21	Z21	X22	Y22	Z22	X23	Y23	Z23	X24	Y24	Z24	X25	Y25	Z25	X26	Y26	Z26	X27	Y27	Z27	X28	Y28	Z28	X29	Y29	Z29	X30	Y30	Z30	X31	Y31	Z31	X32	Y32	Z32	X33	Y33	Z33	X34	Y34	Z34	X35	Y35	Z35	X36	Y36	Z36	X37	Y37	Z37	X38	Y38	Z38	X39	Y39	Z39	X40	Y40	Z40	X41	Y41	Z41	X42	Y42	Z42	X43	Y43	Z43	X44	Y44	Z44	X45	Y45	Z45	X46	Y46	Z46	X47	Y47	Z47	X48	Y48	Z48	X49	Y49	Z49	X50	Y50	Z50	X51	Y51	Z51	X52	Y52	Z52	X53	Y53	Z53	X54	Y54	Z54	

356	3.55	-156.0899810791016	1005.523742675781	300.167236328125	-43.10466766357422	1010.058715820312	258.4710998535156	-86.76962280273438	1091.973266601562	261.9669494628906	-12.15456485748291	1288.837890625	490.7878723144531	-92.54599761962891	1217.676879882812	257.8504943847656	-76.99497985839844	1482.685424804688	301.6095886230469	-26.056640625	1404.663818359375	461.6581115722656	-160.6678161621094	1336.62841796875	257.3371276855469	22.47614479064941	1445.224853515625	247.6987152099609	102.2183532714844	1448.074462890625	314.8198547363281	166.2963714599609	1327.753540039062	266.5155639648438	201.6358795166016	1119.82080078125	280.9185791015625	131.2112731933594	1097.427612304688	233.149658203125	188.7552032470703	898.4414672851562	410.662109375	254.3698577880859	879.04150390625	360.0346984863281	225.7299041748047	1015.684509277344	306.64599609375	194.2450714111328	706.6712646484375	421.328125	257.0732116699219	792.0474243164062	383.7867431640625	222.2277221679688	799.3715209960938	442.1087036132812	-221.4985961914062	1442.1083984375	405.8118591308594	-289.2351684570312	1376.23095703125	405.3992309570312	-335.75	1098.572265625	384.6445922851562	-253.6142272949219	1091.595947265625	336.1982727050781	-275.1420593261719	876.6281127929688	500.5701599121094	-349.5838012695312	868.188720703125	460.6432800292969	-344.5907897949219	1030.105590820312	410.5121154785156	-276.7088623046875	680.4844970703125	498.0442504882812	-346.8749694824219	758.3455200195312	490.4144592285156	-108.7226715087891	1645.825317382812	358.6315002441406	23.99122619628906	1682.141357421875	539.8273315429688	-73.40039825439453	1676.402954101562	560.061279296875	30.2518196105957	1656.83056640625	376.9448547363281	124.761604309082	951.0042114257812	301.5741577148438	-216.8939361572266	977.9083251953125	435.3631896972656	-147.2184295654297	1023.514343261719	506.8642883300781	117.9832992553711	1002.891662597656	411.3455505371094	128.2892913818359	467.3642578125	351.0014953613281	140.6473999023438	613.2281494140625	343.7402038574219	-46.30392837524414	166.3445129394531	-7.749159336090088	57.6828498840332	326.5953979492188	181.8430023193359	-65.6080322265625	32.50187301635742	154.4692230224609	-115.0790939331055	82.40441131591797	125.8941650390625	-26.46066856384277	59.37839889526367	59.16005325317383	-93.09542083740234	230.8594665527344	-16.0035400390625	-97.57790374755859	516.8796997070312	586.8998413085938	-177.0081329345703	772.5364990234375	539.2549438476562	-43.98218536376953	32.43416213989258	553.0787963867188	-63.28115463256836	398.2708129882812	606.3731689453125	56.7016487121582	43.64089584350586	746.0823974609375	82.05250549316406	40.29463958740234	681.1739501953125	-37.90365600585938	36.30187606811523	666.0787353515625	-1.806846618652344	32.16608810424805	478.63671875	-285.3667602539062	751.5963134765625	527.6907958984375	nan	nan	nan	
357	3.56	-153.9649963378906	1007.277099609375	306.4659423828125	-40.96287536621094	1011.524719238281	264.7406616210938	-84.81293487548828	1093.433715820312	268.3819274902344	-9.742839813232422	1290.30126953125	497.0338134765625	-90.59859466552734	1219.18603515625	264.2376708984375	-74.83013916015625	1484.169555664062	308.02734375	-23.64011573791504	1406.132202148438	467.9442749023438	-158.6542358398438	1338.152465820312	263.8137817382812	24.45679473876953	1446.6806640625	253.9430999755859	104.4259033203125	1449.54638671875	320.8223876953125	168.1479034423828	1329.173461914062	271.9820251464844	203.0615081787109	1121.121459960938	285.2472229003906	132.2977600097656	1099.259033203125	237.7180633544922	190.6457977294922	897.98681640625	412.1190490722656	255.7821807861328	879.110595703125	360.6416015625	227.1069946289062	1016.618469238281	309.4772033691406	195.1049194335938	706.0233764648438	419.5835571289062	258.2113952636719	791.668212890625	382.9668579101562	223.8625793457031	798.2191772460938	441.7004089355469	-219.1876525878906	1443.642822265625	412.34619140625	-287.0015258789062	1377.831665039062	412.0389404296875	-333.7264404296875	1100.097900390625	391.6133117675781	-251.6554107666016	1093.047973632812	343.0608825683594	-272.24560546875	879.2329711914062	509.0022277832031	-346.5456848144531	869.90869140625	468.9227905273438	-342.3870239257812	1031.641845703125	417.8235168457031	-272.7321166992188	683.09716796875	508.762451171875	-343.2613220214844	760.4276123046875	499.9558715820312	-106.3774108886719	1647.237182617188	364.93017578125	25.94016075134277	1683.6484375	546.38330078125	-71.49604797363281	1677.86572265625	566.4149169921875	32.52951049804688	1658.327392578125	383.5154113769531	126.6982116699219	952.264404296875	307.9552001953125	-215.0579681396484	979.5650024414062	442.06201171875	-144.8423614501953	1024.9189453125	513.1968994140625	120.2479553222656	1004.529968261719	417.5779113769531	135.1722412109375	469.1022033691406	364.6658325195312	145.8804168701172	614.9249877929688	355.0929260253906	-38.36004638671875	171.3391571044922	3.320271730422974	65.34638214111328	329.5753784179688	194.8165283203125	-54.36028671264648	32.6638298034668	163.7924194335938	-104.8308639526367	84.86964416503906	136.5619354248047	-17.0243091583252	63.53704452514648	68.49100494384766	-85.63907623291016	235.2648010253906	-4.094212532043457	-96.31016540527344	516.9765014648438	589.5220336914062	-175.1285247802734	773.1534423828125	544.02099609375	-43.95394897460938	32.50645065307617	553.020751953125	-62.50020980834961	398.1438598632812	608.16650390625	56.70574951171875	43.66084289550781	746.0659790039062	82.15155792236328	40.29835510253906	681.158203125	-37.84220504760742	36.33324432373047	666.0413208007812	-1.767035007476807	32.17527770996094	478.5735168457031	-282.0067138671875	754.313720703125	537.6802978515625	nan	nan	nan	
358	3.57	-151.7909545898438	1009.053100585938	312.4275512695312	-38.73030090332031	1013.094055175781	270.7803649902344	-82.81233978271484	1094.9501953125	274.5586242675781	-7.374038219451904	1291.801147460938	503.1122436523438	-88.75699615478516	1220.786865234375	270.4186706542969	-72.74461364746094	1485.721923828125	314.3346862792969	-21.2476806640625	1407.648559570312	474.0838928222656	-156.7766571044922	1339.792114257812	270.1969604492188	26.33111000061035	1448.201782226562	260.0340881347656	106.5457382202148	1451.086791992188	326.6334228515625	169.9361877441406	1330.692260742188	277.2278442382812	204.5269012451172	1122.564453125	289.3823547363281	133.4509582519531	1101.158813476562	242.0898590087891	192.6305999755859	897.7951049804688	413.5117797851562	257.3359680175781	879.4661865234375	361.2659912109375	228.5558166503906	1017.751525878906	312.2074584960938	196.2344665527344	705.7034912109375	417.9616088867188	259.5658874511719	791.6346435546875	382.2651062011719	225.6316070556641	797.4232177734375	441.3360595703125	-216.9072418212891	1445.267578125	418.8464660644531	-284.8064575195312	1379.537719726562	418.6725769042969	-331.8030090332031	1101.734619140625	398.5712890625	-249.8473205566406	1094.611328125	349.8285827636719	-269.2482299804688	881.9630126953125	517.36962890625	-343.4681396484375	871.7711181640625	477.2886962890625	-340.2447814941406	1033.290405273438	425.14794921875	-268.6051940917969	685.9317626953125	519.6016845703125	-339.5271606445312	762.6788940429688	509.64306640625	-104.0434188842773	1648.724487304688	371.141845703125	27.91522216796875	1685.15673828125	552.8399658203125	-69.55711364746094	1679.342529296875	572.6941528320312	34.80459976196289	1659.862548828125	389.9818115234375	128.7502288818359	953.71337890625	314.1736755371094	-213.0800018310547	981.0651245117188	448.0571594238281	-142.6635894775391	1026.331909179688	519.1887817382812	122.4589691162109	1006.285522460938	423.7214050292969	141.6947021484375	471.1137390136719	378.1200866699219	150.9474792480469	616.8641967773438	366.2905883789062	-30.6533374786377	175.366455078125	15.16926193237305	72.61997222900391	332.3523559570312	207.8308410644531	-41.21252822875977	33.34311676025391	174.5811309814453	-93.17922973632812	86.51241302490234	148.6309814453125	-6.161084651947021	67.75057220458984	79.09355163574219	-79.14254760742188	238.1175384521484	8.49660587310791	-95.14534759521484	517.072509765625	591.8093872070312	-173.3578643798828	773.7506103515625	548.36328125	-43.92504501342773	32.55971145629883	552.9786376953125	-61.7876091003418	398.0453186035156	609.699951171875	56.67105102539062	43.69003677368164	746.045654296875	82.22190093994141	40.31560516357422	681.1312866210938	-37.79345321655273	36.34297180175781	666.0147094726562	-1.752289175987244	32.18130493164062	478.5120239257812	-278.522216796875	757.3745727539062	547.9017944335938	nan	nan	nan	
359	3.58	-149.5326080322266	1010.818359375	318.04052734375	-36.368408203125	1014.738952636719	276.5900268554688	-80.72416687011719	1096.512939453125	280.4974060058594	-5.065268039703369	1293.320678710938	509.0385131835938	-86.98046112060547	1222.45849609375	276.3947448730469	-70.73164367675781	1487.323974609375	320.5339050292969	-18.89410209655762	1409.195556640625	480.0892944335938	-155.0197601318359	1341.530151367188	276.4873962402344	28.11633110046387	1449.775756835938	265.994384765625	108.5875625610352	1452.682006835938	332.2907104492188	171.6714172363281	1332.301147460938	282.2824401855469	206.0075378417969	1124.132080078125	293.3059997558594	134.6222839355469	1103.119873046875	246.2737579345703	194.7252807617188	897.863525390625	414.8689575195312	259.0205078125	880.0944213867188	361.9129333496094	230.0536499023438	1019.061584472656	314.8254699707031	197.6572875976562	705.6851806640625	416.4876098632812	261.1338806152344	791.931884765625	381.684814453125	227.5590209960938	796.9698486328125	441.0362243652344	-214.662109375	1446.968505859375	425.3020629882812	-282.6499938964844	1381.332763671875	425.2878112792969	-329.9626770019531	1103.46533203125	405.5270690917969	-248.1775054931641	1096.263793945312	356.51416015625	-266.1476440429688	884.7890625	525.6678466796875	-340.3591918945312	873.7741088867188	485.7463684082031	-338.1523742675781	1035.038330078125	432.4944152832031	-264.3599548339844	688.9608154296875	530.4714965820312	-335.6964416503906	765.08837890625	519.4346923828125	-101.7254257202148	1650.268676757812	377.2625427246094	29.91836547851562	1686.6533203125	559.1876220703125	-67.58358764648438	1680.82568359375	578.8922729492188	37.07465744018555	1661.412475585938	396.3353881835938	130.9216766357422	955.3171997070312	320.3040466308594	-210.9643249511719	982.3800048828125	453.3013916015625	-140.7276458740234	1027.736938476562	524.8221435546875	124.588020324707	1008.131652832031	429.8242797851562	147.8359527587891	473.3502807617188	391.3251647949219	155.8497619628906	619.0071411132812	377.3052062988281	-23.11100769042969	178.3392791748047	27.78854942321777	79.49334716796875	334.8362121582031	220.8734588623047	-26.43953514099121	34.52481460571289	186.8446655273438	-80.34133148193359	87.29964447021484	161.9720306396484	5.997222423553467	71.91545867919922	90.99350738525391	-73.47663879394531	239.3434448242188	21.72660827636719	-94.08431243896484	517.1663818359375	593.8137817382812	-171.6786956787109	774.3390502929688	552.3319702148438	-43.89282608032227	32.59845733642578	552.9506225585938	-61.1312141418457	397.9720153808594	611.0179443359375	56.60987854003906	43.72126007080078	746.020751953125	82.27169799804688	40.33642578125	681.097900390625	-37.75667190551758	36.33907699584961	665.9952392578125	-1.754945755004883	32.18507766723633	478.4526672363281	-274.9223022460938	760.73779296875	558.2582397460938	nan	nan	nan	
